<svg xmlns="http://www.w3.org/2000/svg" xmlns:xlink="http://www.w3.org/1999/xlink" width="876.272" height="661.473" xmlns:v="https://vecta.io/nano"><style><![CDATA[.B{fill:#2f2e41}.C{fill:#ffb8b8}.D{fill:#6030b1}.E{fill:#3f3d56}.F{fill:#a0616a}]]></style><path d="M504.97 32.194c7.516 15.995-8.411 20.526-26.655 29.099s-31.898 17.942-39.414 1.947-13.615-47.743 12.195-59.871c26.699-12.546 46.358 12.829 53.874 28.825z" class="B"/><circle cx="467.746" cy="39.089" r="24.561" class="C"/><path d="M589.426 148.012l-2.56-3.26q-1.665-2.07-3.35-4.01c-12.73-14.69-26.27-23.94-41.18-24.93h-.02l-.22-.02-29.71 28.96-10.1 9.84.22.54 5.45 13.57h95.49c-4.303-7.141-8.983-14.047-14.02-20.69zM441.038 48.977h0l8.792-4.131-1.225-12.683 5.879 10.496 4.202-1.975-.714-7.399 3.43 6.123 31.224-14.673h0c-6.107-12.996-21.593-18.581-34.589-12.474l-4.525 2.126c-12.996 6.107-18.581 21.593-12.474 34.589z" class="B"/><path d="M644.526 494.8H131.688c-9.108-.01-16.49-7.392-16.5-16.5V170.146c.007-6.673 5.415-12.081 12.088-12.088h521.453c6.788.008 12.29 5.509 12.297 12.297V478.3c-.01 9.108-7.392 16.49-16.5 16.5z" fill="#f2f2f2"/><path d="M147.688 478.3h480.838c8.837 0 16-7.163 16-16V200.752c0-8.837-7.163-16-16-16H147.688c-8.837 0-16 7.163-16 16V462.3c0 8.837 7.163 16 16 16z" fill="#fff"/><path d="M660.796 169.203h-545.84v-8.4c.013-9.139 7.421-16.542 16.56-16.55h512.72c9.139.008 16.547 7.411 16.56 16.55z" class="D"/><g fill="#fff"><circle cx="145.051" cy="156.752" r="4.283"/><circle cx="161.31" cy="156.752" r="4.283"/><circle cx="177.569" cy="156.752" r="4.283"/></g><g fill="#ccc"><use xlink:href="#B"/><path d="M394.61 409.579h-26c-1.656-.002-2.998-1.344-3-3v-32c.002-1.656 1.344-2.998 3-3h18.839a3.01 3.01 0 0 1 1.879.662l7.16 5.754c.711.568 1.123 1.429 1.121 2.338v26.246c-.002 1.656-1.344 2.998-3 3zm-26-36a1 1 0 0 0-1 1v32a1 1 0 0 0 1 1h26a1 1 0 0 0 1-1v-26.246c.001-.303-.137-.59-.374-.779l-7.161-5.754a1 1 0 0 0-.626-.22zm21 12h-16a1 1 0 1 1 0-2h16a1 1 0 1 1 0 2zm0 6h-16a1 1 0 1 1 0-2h16a1 1 0 1 1 0 2zm0 6h-16a1 1 0 1 1 0-2h16a1 1 0 1 1 0 2z"/><use xlink:href="#B" x="102"/><use xlink:href="#C"/><path d="M483.61 393.217c-.562.001-1.113-.156-1.59-.453l-14.94-9.337a1 1 0 0 1 1.061-1.696l14.94 9.337c.325.201.735.201 1.06 0l14.939-9.337a1 1 0 1 1 1.061 1.696l-14.939 9.337c-.477.297-1.029.454-1.591.453z"/><use xlink:href="#B" x="-102"/><use xlink:href="#C" x="-204"/><path d="M289.172 401.579h-20.124a2 2 0 0 1-1.732-3l6.062-10.5a2 2 0 0 1 3.464 0l3.915 6.781 2.268-3.929a2 2 0 0 1 3.464 0l4.415 7.647a2 2 0 0 1-1.732 3zm0-2h0l-4.415-7.647-3.134 5.429a1 1 0 0 1-.866.5h0a1 1 0 0 1-.866-.5l-4.781-8.281-6.062 10.5z"/><circle cx="290.61" cy="385.579" r="2"/></g><path d="M768.825 648.15l-12.26-.001-5.832-47.288 18.094.001-.002 47.288z" class="C"/><use xlink:href="#D" class="B"/><path d="M818.825 648.15l-12.26-.001-5.832-47.288 18.094.001-.002 47.288z" class="C"/><g class="B"><use xlink:href="#D" x="50"/><path d="M815.15 627.65l-11.354-3.454c-1.73-.524-2.978-2.035-3.166-3.833l-10.586-100.326a.48.48 0 0 0-.479-.447.47.47 0 0 0-.511.409l-17.731 97.199a4.5 4.5 0 0 1-5.335 3.6l-14.511-2.989c-2.2-.46-3.727-2.469-3.582-4.712l10.785-159.312 73.138-7.892-10.868 177.727c-.146 2.371-2.109 4.221-4.484 4.228-.446 0-.89-.066-1.317-.196z"/></g><circle cx="815.08" cy="290.487" r="24.561" class="C"/><path d="M758.568 454.72l15.858-99.851a37.86 37.86 0 0 1 48.005-30.399h0c18.694 5.407 30.213 24.14 26.601 43.262l-16.591 89.172z" class="D"/><path d="M821.861 472.586c2.483-1.64 4.113-4.295 4.45-7.252s-.653-5.911-2.703-8.068l16.396-31.751-18.465 1.97-12.739 29.849a10.11 10.11 0 0 0 13.061 15.251z" class="C"/><path d="M825.372 451.665c-.907-.128-1.753-.529-2.427-1.151l-6.273-5.797c-1.388-1.289-1.824-3.307-1.092-5.054l12.537-29.718-1.779-58.72c.696-5.135 4.08-9.509 8.876-11.471s10.276-1.215 14.371 1.96 6.185 8.295 5.48 13.429l3.041 36.912c.925 11.203-2.252 22.36-8.938 31.397l-19.552 26.432c-.761 1.027-1.922 1.683-3.195 1.804-.35.033-.702.025-1.05-.024z" class="D"/><path d="M673.641 277.105c.542 2.926 2.352 5.462 4.943 6.926s5.698 1.704 8.483.656l22.846 27.478 5.385-17.772-22.52-23.369a10.11 10.11 0 0 0-19.137 6.081z" class="C"/><path d="M691.537 288.495c.472-.785 1.171-1.408 2.006-1.786l7.784-3.517c1.728-.776 3.757-.39 5.08.965l22.478 23.132 54.766 21.257c4.459 2.642 7.168 7.464 7.105 12.647s-2.888 9.938-7.409 12.471-10.052 2.46-14.505-.192l-35.177-11.592c-10.677-3.517-19.713-10.792-25.427-20.472l-16.717-28.31c-.649-1.101-.8-2.427-.415-3.646.106-.335.251-.657.432-.958z" class="D"/><path opacity=".1" d="M835.002 375.652l-1 32-18.422 32.011 15.382-35.673 4.04-28.338z"/><path d="M812.266 295.103c-3.19.415-6.195-1.595-7.031-4.702-.793-3.523-3.467-6.321-6.951-7.274-4.505-1.029-10.012 1.091-13.314-2.322a6.64 6.64 0 0 1-1.575-5.842c.608-3.317 2.981-5.823 5.563-7.827a34.06 34.06 0 0 1 18.866-7.051c3.549-.103 7.1.074 10.621.528a47.01 47.01 0 0 1 10.864 1.985c8.174 3.085 14.209 10.129 16.002 18.68a29.53 29.53 0 0 1-6.057 24.13 31.7 31.7 0 0 1-12.161 9.259c-1.131.534-2.427.6-3.606.183-2.957-1.176-2.474-4.839-1.126-7.283 1.443-2.615 3.663-5.146 2.503-8.329a6.3 6.3 0 0 0-3.127-3.366c-2.94-1.499-6.228-1.145-9.389-.78z" class="B"/><path d="M665.433 308.973h-304c-9.108-.01-16.49-7.392-16.5-16.5v-65c.01-9.108 7.392-16.49 16.5-16.5h304c9.108.01 16.49 7.392 16.5 16.5v65c-.01 9.108-7.392 16.49-16.5 16.5z" fill="#fff"/><path d="M665.433 309.473h-304c-9.384-.011-16.989-7.616-17-17v-65c.011-9.384 7.616-16.989 17-17h304c9.384.011 16.989 7.616 17 17v65c-.011 9.384-7.616 16.989-17 17zm-304-97a15.02 15.02 0 0 0-15 15v65a15.02 15.02 0 0 0 15 15h304a15.02 15.02 0 0 0 15-15v-65a15.02 15.02 0 0 0-15-15z" class="E"/><path d="M628.433 292.973h-230c-9.108-.01-16.49-7.392-16.5-16.5v-34c.01-9.108 7.392-16.49 16.5-16.5h230c9.108.01 16.49 7.392 16.5 16.5v34c-.01 9.108-7.392 16.49-16.5 16.5z" fill="#f2f2f2"/><circle cx="447.928" cy="254.915" r="19.732" fill="#ff6584"/><path d="M614.14 290.981l-27.853-23.36-27.372-22.956a4 4 0 0 0-5.153.01l-27.283 23.062-6.664 5.633-10.048-8.427-30.537-25.611a4 4 0 0 0-5.152.01L443.64 265.07l-30.917 26.133a1 1 0 0 0 .647 1.764l63.387-.122 20.064-.039-.196.166 59.808-.115 57.067-.11a1 1 0 0 0 .641-1.766z" class="E"/><path d="M875.272 661.473h-192a1 1 0 1 1 0-2h192a1 1 0 1 1 0 2z" fill="#ccc"/><path d="M604.056 131.912a11.22 11.22 0 0 0-7.25-5.1 10.3 10.3 0 0 0-1.66-.21l-76.19-68.12a9.02 9.02 0 0 0-5.63-2.69 7.67 7.67 0 0 0-1.27-.04c-3.592.163-6.747 2.436-8.039 5.792s-.476 7.158 2.079 9.688l29.17 25.43 47.9 41.75c.039.786.157 1.567.35 2.33a11.27 11.27 0 0 0 9.67 8.37 11.09 11.09 0 0 0 6.05-1 11.4 11.4 0 0 0 3.88-2.97 5.89 5.89 0 0 0 .31-.39c2.863-3.731 3.114-8.846.63-12.84zm-130.32 65.65l-.71-28.86-.6-23.95-.41-16.76-.81-32.67c-.327-3.574-2.737-6.617-6.141-7.754s-7.159-.155-9.569 2.504c-.278.297-.529.619-.75.96-1.231 1.763-1.785 3.911-1.56 6.05l1.78 47.67.89 23.95 1.14 30.55a12.05 12.05 0 0 0-.89 1.41 11.25 11.25 0 0 0-.71 8.84 11.31 11.31 0 0 0 15.56 6.63 11.3 11.3 0 0 0 2.78-18.57z" class="C"/><path d="M542.336 115.812l-7.07-19.15-11.44-31.02c-1.672-4.572-5.334-8.134-9.95-9.68-.18-.06-.37-.12-.55-.17-4.467-1.356-9.304-.691-13.24 1.82l-38.53 24.44c-7.335 4.642-9.667 14.265-5.27 21.75 4.818 8.332 10.069 16.406 15.73 24.19 4.49 6.11 12.85 6.76 14.3 16.76h28.41l28.76-25.82z" fill="#ccc"/><g class="F"><circle cx="101.165" cy="326.682" r="23.172"/><path d="M158.051 310.732q.342.273.664.578a10.38 10.38 0 0 1-.417 15.484 9.72 9.72 0 0 1-.814.613l1.568 52.945a8.06 8.06 0 0 1-5.545 7.867l-.096.021-42.989 4.578a8.9 8.9 0 1 1-1.723-17.713l30.644-2.699 5.3-45.851c-.347-.307-.671-.638-.972-.99a10.38 10.38 0 0 1 14.378-14.833zm-18.723 338.442h11.567l5.502-44.613h-17.071l.002 44.613z"/></g><path d="M136.378 645.398l22.778-.001h.001c3.85 0 7.542 1.529 10.264 4.251s4.252 6.414 4.252 10.264v.472l-37.294.001z" class="B"/><path d="M24.366 633.182l9.938 5.917 27.553-35.517-14.668-8.733-22.823 38.333z" class="F"/><path d="M23.763 628.428l19.572 11.653h.001c3.308 1.97 5.698 5.173 6.644 8.904a14.52 14.52 0 0 1-1.598 10.995l-.241.405-32.044-19.079zm129.861 4.989h-12.952a4.24 4.24 0 0 1-4.221-3.797l-13.057-122.737c-.068-.635-.552-1.146-1.183-1.247s-1.251.232-1.514.814l-23.555 52.159-41.704 68.003c-1.116 1.802-3.385 2.512-5.329 1.666l-16.66-7.33a4.25 4.25 0 0 1-2.335-2.596 4.24 4.24 0 0 1 .4-3.468l38.337-64.192 11.758-54.085c-3.698-23.455 12.155-58.326 12.316-58.676l.079-.17 43.668-17.068.219.268c17.221 56.514 27.715 117.332 19.967 208.568-.198 2.193-2.03 3.877-4.232 3.89z" class="B"/><path d="M92.243 443.474l-.203-.427c-.097-.205-9.807-20.684-17.292-42.571-2.908-8.558-2.096-17.943 2.239-25.873a32.64 32.64 0 0 1 20.813-16.004h0a32.68 32.68 0 0 1 37.928 19.57c5.937 14.847 4.045 30.695 2.264 43.157l-.035.25-.227.109z" class="E"/><g class="B"><path d="M129.26 313.593H92.466v-16.038c8.076-3.208 15.978-5.937 20.756 0 8.858 0 16.038 7.181 16.038 16.038z"/><path d="M90.429 294.724c-21.996 0-28.153 27.571-28.153 43.126 0 8.674 3.923 11.777 10.088 12.827l2.177-11.611 5.099 12.111c1.732.009 3.551-.025 5.437-.06l1.729-3.56 3.855 3.496c15.441.023 27.921 2.274 27.921-13.203 0-15.554-5.399-43.126-28.152-43.126z"/></g><path d="M193 661.473H1a1 1 0 1 1 0-2h192a1 1 0 1 1 0 2z" fill="#ccc"/><path d="M196.61 332.473h-43c-5.244-.006-9.494-4.256-9.5-9.5v-43c.006-5.244 4.256-9.494 9.5-9.5h43c5.244.006 9.494 4.256 9.5 9.5v43c-.006 5.244-4.256 9.494-9.5 9.5z" fill="#fff"/><use xlink:href="#B" x="-206.5" y="-89.106" class="E"/><path d="M189.11 314.973h-28c-1.656-.002-2.998-1.344-3-3v-21c.002-1.656 1.344-2.998 3-3h7.882a2.98 2.98 0 0 1 2.555 1.427l2.198 3.573h15.364c1.656.002 2.998 1.344 3 3v16c-.002 1.656-1.344 2.998-3 3z" class="D"/><path d="M188.199 325.582q.21.384.388.79a10.38 10.38 0 0 1-6.393 14.109 9.72 9.72 0 0 1-.988.25l-19.099 49.405a8.06 8.06 0 0 1-8.163 5.099l-.096-.018-41.397-12.462a8.9 8.9 0 0 1-3.452-15.077 8.9 8.9 0 0 1 8.738-1.917l29.29 9.404 22.676-40.202c-.2-.417-.371-.848-.511-1.289a10.38 10.38 0 0 1 19.007-8.091z" class="F"/><defs ><path id="B" d="M403.11 421.579h-43c-5.244-.006-9.494-4.256-9.5-9.5v-43c.006-5.244 4.256-9.494 9.5-9.5h43c5.244.006 9.494 4.256 9.5 9.5v43c-.006 5.244-4.256 9.494-9.5 9.5zm-43-60a7.51 7.51 0 0 0-7.5 7.5v43a7.51 7.51 0 0 0 7.5 7.5h43a7.51 7.51 0 0 0 7.5-7.5v-43a7.51 7.51 0 0 0-7.5-7.5z"/><path id="C" d="M497.61 401.579h-28c-1.656-.002-2.998-1.344-3-3v-16c.002-1.656 1.344-2.998 3-3h28c1.656.002 2.998 1.344 3 3v16c-.002 1.656-1.344 2.998-3 3zm-28-20a1 1 0 0 0-1 1v16a1 1 0 0 0 1 1h28a1 1 0 0 0 1-1v-16a1 1 0 0 0-1-1z"/><path id="D" d="M771.951 660.034l-39.531-.001v-.5c0-4.081 1.621-7.994 4.507-10.88s6.799-4.506 10.88-4.506h.001l24.144.001z"/></defs></svg>